<svg width="172" height="52" viewBox="0 0 172 52" fill="none" xmlns="http://www.w3.org/2000/svg">
<g filter="url(#filter0_d_1_922)">
<path d="M43.6255 32.5722L44.64 32.3633C45.5352 32.1246 45.7739 32.0052 45.7739 30.2149V16.1609C45.7739 14.3706 45.5053 14.2214 44.64 14.0125L43.6255 13.8036V12.9681H59.7981L60.0965 18.906H59.1715C58.4255 17.2649 57.9481 16.3996 57.5005 15.7431C56.5456 14.3706 55.919 14.2512 53.8602 14.2512C52.3384 14.2512 51.5924 14.4302 51.1448 14.5496V22.1585H51.9505C54.0392 22.1585 54.5166 21.9198 54.8747 21.2633C55.2924 20.5173 55.5311 19.9504 55.7997 18.9956H56.6948V26.6939H55.7997C55.5311 25.7689 55.2924 25.1722 54.8747 24.3068C54.5166 23.5609 54.1287 23.4117 51.9505 23.4117H51.1448V29.1407C51.1448 31.7964 51.2344 32.0948 54.1287 32.0948C56.5158 32.0948 56.9932 31.7964 57.9779 30.3343C58.515 29.5286 59.0819 28.2754 59.8577 26.3956H60.8126L60.3948 33.4077H43.6553L43.6255 32.5722ZM63.319 21.3827C62.6327 19.7117 62.3045 19.2939 61.5585 19.0552L60.9916 18.8762V18.1004H69.8537V18.8762L69.0481 19.0851C68.4215 19.2641 68.1231 19.5625 68.1231 20.2786C68.1231 20.6964 68.2723 21.2036 68.511 21.8601L70.9876 28.6633H71.1368L73.5239 21.8601C73.7924 21.1439 73.9118 20.6367 73.9118 20.2189C73.9118 19.5625 73.6134 19.2343 72.9868 19.0851L72.1811 18.8762V18.1004H77.6416V18.8762L77.0747 19.0552C76.2989 19.3238 75.9706 19.7714 75.2545 21.7109L70.6892 33.4077H68.1827L63.319 21.3827ZM76.9553 25.6794C76.9553 20.5472 80.7448 17.7125 84.6537 17.7125C88.7118 17.7125 91.2481 19.7415 91.3376 25.0827H81.5803C81.6698 29.9165 83.49 31.2294 86.5335 31.2294C88.3537 31.2294 89.7561 30.6923 90.8602 30.1254V31.1101C89.8158 32.2439 87.5779 33.7956 84.6239 33.7956C79.4916 33.7359 76.9553 30.6923 76.9553 25.6794ZM81.5803 23.9488L86.6231 23.6802C86.6231 20.1294 86.1456 18.8165 84.3852 18.8165C82.8932 18.8165 81.6997 20.2488 81.5803 23.9488ZM99.0956 19.9802C99.9311 19.0851 101.632 17.623 103.601 17.623C104.855 17.623 105.899 18.6375 105.899 19.9206C105.899 21.2036 104.884 22.2181 103.601 22.2181C102.676 22.2181 101.841 21.6512 101.513 20.8456C101.334 20.5173 100.946 20.4278 100.677 20.4278C100.14 20.4278 99.5134 20.8157 99.1255 21.1738V30.7222C99.1255 32.0948 99.2448 32.2439 100.14 32.3931L101.125 32.602V33.4077H92.6206V32.602L93.3965 32.3931C94.3811 32.1246 94.5005 31.9754 94.5005 30.7222V21.5617C94.5005 20.3085 94.3513 20.2189 93.5158 19.652L92.5311 18.9956V18.3988L98.7376 17.6827L99.0658 17.9214L99.0061 19.9504L99.0956 19.9802ZM106.794 32.602L107.57 32.3931C108.555 32.1246 108.674 31.9754 108.674 30.7222V21.5617C108.674 20.3085 108.525 20.2189 107.689 19.652L106.705 18.9956V18.3988L112.911 17.6827L113.239 17.8915L113.18 19.7714H113.299C114.85 18.6673 116.79 17.6827 118.938 17.6827C121.445 17.6827 122.788 18.9657 122.788 21.6214V30.6923C122.788 31.9754 122.907 32.1246 123.862 32.3633L124.638 32.5722V33.3778H116.432V32.5722L117.148 32.3931C118.043 32.1544 118.133 32.0649 118.133 30.6923V22.7851C118.133 20.9948 117.476 20.4278 116.104 20.4278C115.059 20.4278 114.015 20.6665 113.359 20.8157V30.7222C113.359 32.1246 113.448 32.1843 114.343 32.423L115.059 32.602V33.4077H106.854V32.602H106.794ZM125.205 25.7689C125.205 20.1294 129.203 17.7125 133.171 17.7125C137.438 17.7125 141.168 20.2786 141.168 25.6198C141.168 31.2593 137.23 33.7359 133.171 33.7359C128.905 33.7359 125.205 31.1698 125.205 25.7689ZM136.215 25.9181C136.215 19.9802 135.081 18.8464 133.052 18.8464C131.202 18.8464 130.098 20.1891 130.098 25.2617C130.098 31.2891 131.083 32.602 133.231 32.602C134.992 32.602 136.215 31.5577 136.215 25.9181ZM143.705 29.6778V19.831H141.855V19.1149C144.152 18.2198 145.913 16.5189 146.748 14.1617H148.419V18.1004H152.328L151.94 19.831H148.419V29.3794C148.419 30.8415 148.867 31.4383 150.329 31.4383C151.045 31.4383 151.91 31.2891 152.447 31.1698V32.0052C151.731 32.6617 150.269 33.7359 147.792 33.7359C145.137 33.7359 143.705 32.5722 143.705 29.6778ZM153.044 25.6794C153.044 20.5472 156.834 17.7125 160.742 17.7125C164.8 17.7125 167.337 19.7415 167.426 25.0827H157.699C157.788 29.9165 159.609 31.2294 162.652 31.2294C164.472 31.2294 165.875 30.6923 166.979 30.1254V31.1101C165.934 32.2439 163.696 33.7956 160.742 33.7956C155.58 33.7359 153.044 30.6923 153.044 25.6794ZM157.669 23.9488L162.712 23.6802C162.712 20.1294 162.234 18.8165 160.474 18.8165C158.982 18.8165 157.788 20.2488 157.669 23.9488Z" fill="black"/>
<path d="M13.7277 15.2654C13.7277 15.6234 13.6979 16.2202 13.3398 16.6081C12.9519 16.9662 12.3552 16.996 11.9971 16.996H8.17775C7.07371 16.996 6.41726 16.996 5.96968 17.0557C5.73097 17.0855 5.43259 17.2049 5.28339 17.2646C5.22371 17.2944 5.22371 17.2646 5.25355 17.2347L13.9665 8.37263C13.9963 8.34279 14.0261 8.34279 13.9963 8.40246C13.9366 8.55166 13.8173 8.85004 13.7874 9.08875C13.7277 9.53634 13.7277 10.1928 13.7277 11.2968V15.2654ZM21.8439 42.0605C20.8294 41.4041 20.2923 40.5388 20.0834 40.0017C19.8745 39.4944 19.7552 38.9275 19.7552 38.3605C19.7552 35.8839 21.7842 33.8549 24.2906 33.8549C25.0366 33.8549 25.6334 34.4517 25.6334 35.1976C25.6334 35.7049 25.3648 36.1226 24.9471 36.3613C24.7979 36.4509 24.589 36.5105 24.4398 36.5404C24.2906 36.5702 23.7237 36.6299 23.4552 36.8686C23.1568 37.1073 22.9181 37.4952 22.9181 37.9129C22.9181 38.3605 23.0971 38.7783 23.3955 39.0767C23.9326 39.6138 24.6487 39.9121 25.4245 39.9121C27.4535 39.9121 29.0947 38.271 29.0947 36.242C29.0947 34.4218 27.8713 32.8105 26.26 32.0944C26.0213 31.975 25.6334 31.8855 25.2753 31.796C24.8277 31.7065 24.41 31.6468 24.3802 31.6468C23.1269 31.4976 19.9939 30.513 19.785 27.738C19.785 27.738 18.86 31.9154 17.01 33.0492C16.831 33.1388 16.5923 33.2283 16.3237 33.288C16.0552 33.3476 15.7568 33.3775 15.6673 33.3775C12.6536 33.5565 9.46081 32.6017 7.25275 30.3339C7.25275 30.3339 5.76081 29.1105 4.985 25.6791C4.80597 24.8436 4.44791 23.3517 4.23904 21.9492C4.14952 21.442 4.11968 21.0541 4.08984 20.696C4.08984 19.2339 4.985 18.2492 6.11888 18.1C6.14871 18.1 6.23823 18.1 6.29791 18.1C6.9842 18.1 12.206 18.1 12.206 18.1C13.2503 18.1 13.8471 17.8315 14.235 17.4734C14.7423 16.996 14.8616 16.3097 14.8616 15.5041C14.8616 15.5041 14.8616 10.0734 14.8616 9.38714C14.8616 9.3573 14.8616 9.23795 14.8616 9.20811C15.0108 8.10408 15.9955 7.17908 17.4576 7.17908C17.4576 7.17908 17.9052 7.17908 18.1737 7.17908C18.4721 7.17908 18.8302 7.20892 19.1584 7.23875C19.3971 7.26859 19.606 7.32827 19.964 7.41779C21.7842 7.86537 22.1721 9.71537 22.1721 9.71537C22.1721 9.71537 25.6035 10.3121 27.3342 10.6105C28.9753 10.9089 33.0334 11.1775 33.8092 15.2654C35.6294 24.9928 34.5253 34.4218 34.4358 34.4218C33.1527 43.6121 25.514 43.1646 25.514 43.1646C23.8729 43.1646 22.6495 42.6275 21.8439 42.0605ZM28.7068 22.5162C27.7221 22.4267 26.8866 22.8146 26.5882 23.5605C26.5285 23.7097 26.4689 23.8888 26.4987 23.9783C26.5285 24.0678 26.5882 24.0976 26.6479 24.1275C27.006 24.3065 27.6027 24.396 28.4681 24.4855C29.3334 24.575 29.9302 24.6347 30.3181 24.575C30.3777 24.575 30.4374 24.5452 30.4971 24.4557C30.5568 24.3662 30.5269 24.1871 30.5269 24.038C30.4076 23.2025 29.6914 22.6355 28.7068 22.5162Z" fill="#00A82D"/>
</g>
<defs>
<filter id="filter0_d_1_922" x="0" y="0" width="172" height="56" filterUnits="userSpaceOnUse" color-interpolation-filters="sRGB">
<feFlood flood-opacity="0" result="BackgroundImageFix"/>
<feColorMatrix in="SourceAlpha" type="matrix" values="0 0 0 0 0 0 0 0 0 0 0 0 0 0 0 0 0 0 127 0" result="hardAlpha"/>
<feOffset dy="4"/>
<feGaussianBlur stdDeviation="2"/>
<feComposite in2="hardAlpha" operator="out"/>
<feColorMatrix type="matrix" values="0 0 0 0 0 0 0 0 0 0 0 0 0 0 0 0 0 0 0.25 0"/>
<feBlend mode="normal" in2="BackgroundImageFix" result="effect1_dropShadow_1_922"/>
<feBlend mode="normal" in="SourceGraphic" in2="effect1_dropShadow_1_922" result="shape"/>
</filter>
</defs>
</svg>
